<svg id="Calque_1" data-name="Calque 1" xmlns="http://www.w3.org/2000/svg" viewBox="0 0 60 60"><defs><style>.cls-1{fill:#edc83b;}.cls-2{fill:#1eacba;}.cls-3{fill:#fff;}</style></defs><path class="cls-1" d="M11.81,23.11a25,25,0,0,1,1.59-8.8A20,20,0,0,0,0,33.19v1H0v.21c0,7.68.31,15.35.43,23,0,.87,0,1.74,0,2.59.42,0,.53-.2.69-.35C3.88,57.09,6.65,54.56,9.38,52a2.78,2.78,0,0,1,1.78-.84A20,20,0,0,0,33.48,48,25.08,25.08,0,0,1,11.81,23.11Z"/><circle class="cls-2" cx="36.89" cy="23.11" r="23.11"/><path class="cls-3" d="M23.07,15.58a4.43,4.43,0,0,1,.32-2.08,4.87,4.87,0,0,1,.78-1.08c.83-.86,1.68-1.7,2.54-2.53a1.87,1.87,0,0,1,2.12-.45,2.14,2.14,0,0,1,.67.43c1.34,1.31,2.66,2.63,4,4a2,2,0,0,1,.58,1.9,2.47,2.47,0,0,1-.69,1.16c-.7.75-1.42,1.49-2.12,2.25-.41.46-.4.31-.13.9a14.17,14.17,0,0,0,2.32,3.46A27.39,27.39,0,0,0,37,27a17.66,17.66,0,0,0,2.88,1.85A.8.8,0,0,0,41,28.71c.77-.78,1.58-1.52,2.37-2.27a1.91,1.91,0,0,1,1.2-.55,1.74,1.74,0,0,1,1.32.37,50.62,50.62,0,0,1,4.47,4.44,2.09,2.09,0,0,1,0,2.38q-1.3,1.37-2.64,2.7a3.35,3.35,0,0,1-1.49.95,6.24,6.24,0,0,1-2.58.14,17.53,17.53,0,0,1-6-2.19,29.8,29.8,0,0,1-7.32-5.6,30.38,30.38,0,0,1-6-8.81,14.84,14.84,0,0,1-1.07-3.43C23.11,16.36,23.1,15.87,23.07,15.58Z"/></svg>